<svg width="370" height="54" viewBox="0 0 370 54" version="1.1" xmlns="http://www.w3.org/2000/svg" xmlns:xlink="http://www.w3.org/1999/xlink"><path d="M18,24 L18,20 L6,20 L6,18 L4,18 L4,6 L6,6 L6,4 L16,4 L16,6 L10,6 L10,8 L8,8 L8,16 L10,16 L10,18 L18,18 L18,16 L20,16 L20,2 L18,2 L18,0 L4,0 L4,2 L2,2 L2,4 L0,4 L0,20 L2,20 L2,22 L4,22 L4,24 L18,24 Z M16,14 L12,14 L12,10 L16,10 L16,14 Z M36,22 L36,6 L44,6 L44,2 L24,2 L24,6 L32,6 L32,22 L36,22 Z M68,22 L68,18 L54,18 L54,14 L64,14 L64,10 L54,10 L54,6 L68,6 L68,2 L50,2 L50,22 L68,22 Z M92,22 L92,18 L78,18 L78,2 L74,2 L74,22 L92,22 Z M116,22 L116,18 L102,18 L102,14 L112,14 L112,10 L102,10 L102,6 L116,6 L116,2 L98,2 L98,22 L116,22 Z M132,22 L132,6 L140,6 L140,2 L120,2 L120,6 L128,6 L128,22 L132,22 Z M164,22 L164,18 L150,18 L150,14 L160,14 L160,10 L150,10 L150,6 L164,6 L164,2 L146,2 L146,22 L164,22 Z M174,22 L174,14 L176,14 L176,16 L178,16 L178,18 L180,18 L180,20 L182,20 L182,22 L188,22 L188,20 L186,20 L186,18 L184,18 L184,16 L182,16 L182,14 L180,14 L180,10 L182,10 L182,8 L184,8 L184,6 L186,6 L186,4 L188,4 L188,2 L182,2 L182,4 L180,4 L180,6 L178,6 L178,8 L176,8 L176,10 L174,10 L174,2 L170,2 L170,22 L174,22 Z M210,22 L210,20 L212,20 L212,12 L210,12 L210,10 L198,10 L198,6 L210,6 L210,2 L196,2 L196,4 L194,4 L194,12 L196,12 L196,14 L208,14 L208,18 L196,18 L196,22 L210,22 Z M228,22 L228,6 L236,6 L236,2 L216,2 L216,6 L224,6 L224,22 L228,22 Z M252,22 L252,20 L254,20 L254,16 L256,16 L256,10 L258,10 L258,6 L260,6 L260,2 L256,2 L256,6 L254,6 L254,10 L252,10 L252,16 L248,16 L248,10 L246,10 L246,6 L244,6 L244,2 L240,2 L240,6 L242,6 L242,10 L244,10 L244,16 L246,16 L246,20 L248,20 L248,22 L252,22 Z M282,22 L282,18 L276,18 L276,6 L282,6 L282,2 L266,2 L266,6 L272,6 L272,18 L266,18 L266,22 L282,22 Z M306,22 L306,20 L308,20 L308,16 L304,16 L304,18 L296,18 L296,16 L294,16 L294,8 L296,8 L296,6 L304,6 L304,8 L308,8 L308,4 L306,4 L306,2 L294,2 L294,4 L292,4 L292,6 L290,6 L290,18 L292,18 L292,20 L294,20 L294,22 L306,22 Z M330,22 L330,18 L324,18 L324,6 L330,6 L330,2 L314,2 L314,6 L320,6 L320,18 L314,18 L314,22 L330,22 Z" fill-rule="nonzero" fill="#00FFFF"></path></svg>